<svg width="370" height="342" viewBox="0 0 370 342" fill="none" xmlns="http://www.w3.org/2000/svg">
<path fill-rule="evenodd" clip-rule="evenodd" d="M83.6811 0.345288C81.6791 0.575288 80.9641 1.15029 81.1941 2.34529C81.4351 3.60329 83.0481 4.19229 87.6431 4.70029C98.1591 5.86329 107.195 11.5433 113.238 20.7893C117.664 27.5623 128.47 51.3773 127.538 52.3083C127.145 52.7013 105.373 53.0233 79.1561 53.0233H31.4901V56.0233V59.0233L39.4901 59.6243C48.4741 60.2993 54.5721 62.6813 65.6441 69.8393C73.3821 74.8433 86.9861 87.2343 91.4901 93.3813C96.4261 100.117 96.9881 99.1883 97.0051 84.2733C97.0141 76.9863 97.4121 70.4053 97.8911 69.6493C98.5561 68.6003 103.039 68.1523 116.869 67.7563L134.976 67.2373L136.879 71.6303C137.925 74.0463 142.701 85.2483 147.49 96.5233C152.28 107.798 157.008 118.823 157.996 121.023C161.504 128.828 175.349 160.263 182.475 176.601L189.706 193.179L186.598 195.265C180.786 199.165 172.511 202.646 163.274 205.075C155.626 207.087 151.541 207.513 139.269 207.58C130.983 207.625 123.245 207.19 121.67 206.592C118.118 205.241 117.99 205.249 117.99 206.839C117.99 207.564 121.478 209.8 125.74 211.809C151.603 223.998 168.747 240.998 195.039 280.523C210.754 304.149 223.375 318.274 236.631 327.073C242.184 330.759 258.543 337.523 261.904 337.523C262.997 337.523 266.502 338.205 269.691 339.038C277.247 341.012 300.555 342.11 304.221 340.664C308.248 339.076 306.82 336.523 301.906 336.523C297.592 336.523 286.715 332.724 280.35 328.994C276.512 326.745 257.674 308.721 252.078 301.944C250.751 300.338 246.251 294.973 242.078 290.023C226.464 271.504 226.571 271.723 229.072 263.523C231.707 254.884 241.234 231.536 248.25 216.523C250.434 211.848 253.102 205.998 254.177 203.523C255.252 201.048 258.628 193.623 261.68 187.023C269.796 169.472 270.549 167.803 274.328 159.023C276.221 154.623 280.017 146.073 282.763 140.023C291.439 120.904 301.613 98.3933 306.491 87.5233C309.083 81.7483 312.014 75.2233 313.005 73.0233C313.996 70.8233 319.668 58.2233 325.61 45.0233C337.695 18.1773 340.468 14.2123 351.128 8.53029C355.539 6.17929 359.028 5.12929 363.666 4.75729C369.5 4.28929 370.064 4.04729 369.791 2.13229C369.491 0.0292892 369.383 0.0232879 331.49 0.0232879H293.49L293.17 2.27329C292.889 4.25629 293.287 4.52329 296.519 4.52329C301.763 4.52329 306.773 7.23729 309.704 11.6673C311.829 14.8783 312.167 16.3513 311.793 20.7613C311.547 23.6553 310.611 27.5983 309.712 29.5233C308.813 31.4483 303.522 44.0483 297.955 57.5233C292.387 70.9983 285.459 87.6483 282.557 94.5233C279.656 101.398 272.21 119.398 266.012 134.523C259.813 149.648 253.953 163.823 252.988 166.023C252.024 168.223 250 173.173 248.491 177.023C246.982 180.873 245.034 185.573 244.162 187.468C243.291 189.362 239.615 198.064 235.994 206.805C232.373 215.545 228.978 222.703 228.45 222.711C227.922 222.719 226.017 219.054 224.218 214.567L220.946 206.409L228.953 198.876C240.047 188.439 246.772 177.241 251.418 161.466C253.849 153.211 254.376 148.333 254.328 134.523C254.253 113.11 248.533 98.3033 235.069 84.6653C227.153 76.6473 226.004 75.6723 219.477 71.4343C214.231 68.0273 200.895 62.1163 193.99 60.1363C183.024 56.9933 171.041 54.5233 166.754 54.5233C164.344 54.5233 161.642 53.9603 160.75 53.2733C159.858 52.5863 156.622 45.7393 153.559 38.0593C147.274 22.2993 146.529 16.6233 150.006 10.9973C152.397 7.12829 157.393 4.52329 162.423 4.52329C165.928 4.52329 168.214 2.41129 166.528 0.730289C165.843 0.0472886 89.3771 -0.307712 83.6811 0.345288ZM59.9901 70.6193C59.9901 71.2213 60.6291 72.9093 61.4091 74.3693C65.2191 81.4943 66.3541 86.2933 66.5911 96.2763C67.0261 114.654 62.7161 125.726 42.2801 158.729C36.5901 167.917 30.8431 176.733 29.5081 178.319C27.1301 181.145 9.99007 208.183 9.99007 209.109C9.99007 209.367 8.42207 212.751 6.50507 216.629C1.60907 226.536 -0.0119339 232.721 6.60547e-05 241.455C0.0130661 251.767 2.63907 257.175 12.2421 266.667C21.5291 275.847 39.4011 286.449 41.7021 284.143C42.1351 283.708 41.1401 282.237 39.4901 280.874C29.6871 272.774 25.6811 267.691 22.5501 259.382C21.1861 255.762 20.8771 252.441 21.1461 244.282C21.4801 234.129 21.6281 233.546 26.1891 224.363C31.5301 213.612 36.5141 205.641 50.1421 186.058C67.7461 160.761 75.9061 146.398 80.6831 132.304C83.1161 125.126 83.4901 122.491 83.4901 112.523C83.4901 103.621 83.0591 99.8933 81.5821 96.0233C79.1331 89.6073 73.5511 81.4233 67.0871 74.7733C62.1021 69.6453 59.9901 68.4083 59.9901 70.6193ZM167.643 71.2033C167.065 71.7813 169.386 77.9453 178.496 100.023C182.127 108.823 187.942 123.223 191.418 132.023C205.616 167.966 207.527 172.499 208.367 172.224C208.85 172.067 211.02 167.533 213.19 162.148C223.459 136.667 219.456 106.185 203.675 89.6943C198.749 84.5463 186.884 77.0153 179.848 74.5703C170.193 71.2153 168.185 70.6613 167.643 71.2033ZM87.9911 97.7733C87.9911 97.9103 88.9401 100.498 90.1001 103.523C91.4041 106.925 92.2141 111.358 92.2241 115.146C92.2401 121.282 90.3411 131.191 88.8071 132.973C88.3581 133.496 87.9901 134.695 87.9901 135.638C87.9901 137.626 76.0191 161.117 71.9961 167.023C70.4971 169.223 68.5431 172.443 67.6541 174.178C66.7641 175.914 65.4641 177.959 64.7631 178.724C64.0631 179.489 62.7701 181.444 61.8901 183.069C61.0101 184.694 57.9171 189.848 55.0171 194.523C40.2731 218.289 33.0511 237.591 33.0071 253.347C32.9771 264.329 38.7381 278.081 46.8401 286.369C50.2311 289.838 60.1151 297.167 63.4541 298.689C65.7991 299.757 65.9901 300.346 65.9901 306.502C65.9901 324.678 56.6371 335.161 38.7401 337.045C33.0881 337.64 31.9901 338.058 31.9901 339.611C31.9901 341.387 33.9781 341.477 78.7401 341.744C104.453 341.898 126.977 341.858 128.794 341.657C131.509 341.357 132.044 340.911 131.794 339.157C131.524 337.26 130.656 336.955 123.971 336.411C112.336 335.464 105.221 330.779 99.8481 320.523C97.4921 316.027 97.4901 315.995 97.8251 284.327C98.0091 266.895 97.8711 251.723 97.5181 250.612C97.0851 249.246 95.6821 248.395 93.1841 247.982C91.1521 247.646 84.6191 246.05 78.6641 244.435C72.7101 242.82 67.3831 241.78 66.8261 242.124C66.1881 242.519 65.9241 248.975 66.1121 259.593C66.2761 268.856 66.1021 276.744 65.7251 277.122C64.7341 278.112 62.3921 275.917 56.3071 268.292C49.6541 259.956 46.8031 253.593 46.6621 246.769C46.5791 242.692 47.0191 241.05 48.6251 239.443C52.4651 235.604 57.1861 235.924 72.9901 241.095C90.5381 246.836 98.9051 247.575 102.076 243.662C104.318 240.897 104.603 234.331 102.818 226.597C101.72 221.842 101.791 221.363 103.94 219.076C105.607 217.302 106.063 215.951 105.608 214.138C105.149 212.307 105.512 211.271 106.974 210.247C108.947 208.865 109.424 205.9 108.772 199.054C108.516 196.359 108.817 196.03 112.024 195.496C113.968 195.173 116.105 194.57 116.774 194.157C118.583 193.039 118.244 187.187 116.24 184.924C107.684 175.262 104.439 165.133 108.99 162.291C111.494 160.727 111.563 158.906 109.142 158.273C108.025 157.981 107.035 156.5 106.642 154.531C105.619 149.416 105.879 141.034 107.098 139.815C107.779 139.134 107.982 136.841 107.626 133.865C107.306 131.202 107.001 128.348 106.947 127.523C106.463 120.09 97.0321 102.746 91.5041 99.1243C89.2441 97.6433 87.9891 97.1613 87.9911 97.7733ZM195.99 218.391C195.165 218.836 191.939 219.785 188.821 220.501L183.151 221.804L188.821 226.56C197.38 233.741 209.117 247.018 212.277 253.094C213.935 256.283 218.99 261.442 218.991 259.947C218.991 259.439 214.848 249.686 209.783 238.273C200.568 217.505 199.77 216.356 195.99 218.391Z" fill="#594032"/>
</svg>
